Normalized EMG Linear Envelopes
nRows=200
nColumns=4

endheader
time	 med_gas_r	  soleus_r	 tib_ant_r	
2.92742	  0.002407	  0.009350	  0.001129	
2.96069	  0.002420	  0.010094	  0.001122	
2.99395	  0.002441	  0.010327	  0.001123	
3.02722	  0.002478	  0.010009	  0.001127	
3.06048	  0.002540	  0.009321	  0.001131	
3.09375	  0.002635	  0.008464	  0.001130	
3.12702	  0.002766	  0.007654	  0.001125	
3.16028	  0.002922	  0.007011	  0.001113	
3.19355	  0.003071	  0.006527	  0.001095	
3.22681	  0.003177	  0.006122	  0.001073	
3.26008	  0.003198	  0.005795	  0.001054	
3.29335	  0.003128	  0.005597	  0.001042	
3.32661	  0.002999	  0.005515	  0.001036	
3.35988	  0.002861	  0.005465	  0.001035	
3.39315	  0.002747	  0.005389	  0.001036	
3.42641	  0.002669	  0.005350	  0.001035	
3.45968	  0.002616	  0.005363	  0.001032	
3.49294	  0.002561	  0.005382	  0.001028	
3.52621	  0.002488	  0.005366	  0.001025	
3.55948	  0.002417	  0.005375	  0.001027	
3.59274	  0.002368	  0.005445	  0.001032	
3.62601	  0.002349	  0.005546	  0.001042	
3.65927	  0.002356	  0.005606	  0.001057	
3.69254	  0.002377	  0.005667	  0.001077	
3.72581	  0.002384	  0.005791	  0.001096	
3.75907	  0.002366	  0.005966	  0.001111	
3.79234	  0.002331	  0.006105	  0.001122	
3.8256	  0.002285	  0.006159	  0.001129	
3.85887	  0.002241	  0.006185	  0.001130	
3.89214	  0.002210	  0.006225	  0.001127	
3.9254	  0.002198	  0.006246	  0.001124	
3.95867	  0.002215	  0.006220	  0.001123	
3.99194	  0.002266	  0.006130	  0.001129	
4.0252	  0.002348	  0.005986	  0.001146	
4.05847	  0.002449	  0.005806	  0.001175	
4.09173	  0.002547	  0.005633	  0.001215	
4.125	  0.002626	  0.005511	  0.001263	
4.15827	  0.002671	  0.005421	  0.001310	
4.19153	  0.002688	  0.005340	  0.001352	
4.2248	  0.002688	  0.005284	  0.001383	
4.25806	  0.002660	  0.005289	  0.001396	
4.29133	  0.002596	  0.005327	  0.001386	
4.3246	  0.002509	  0.005315	  0.001350	
4.35786	  0.002426	  0.005239	  0.001277	
4.39113	  0.002369	  0.005174	  0.001155	
4.4244	  0.002344	  0.005150	  0.000968	
4.45766	  0.002339	  0.005141	  0.000700	
4.49093	  0.002345	  0.005094	  0.000346	
4.52419	  0.002362	  0.005027	 -0.000076	
4.55746	  0.002386	  0.004946	 -0.000518	
4.59073	  0.002394	  0.004805	 -0.000886	
4.62399	  0.002374	  0.004588	 -0.001044	
4.65726	  0.002336	  0.004392	 -0.000777	
4.69052	  0.002307	  0.004345	  0.000209	
4.72379	  0.002324	  0.004541	  0.002260	
4.75706	  0.002422	  0.005061	  0.005745	
4.79032	  0.002624	  0.005971	  0.011032	
4.82359	  0.002930	  0.007286	  0.018430	
4.85685	  0.003316	  0.008934	  0.027973	
4.89012	  0.003738	  0.010773	  0.039362	
4.92339	  0.004119	  0.012563	  0.051862	
4.95665	  0.004406	  0.014103	  0.064436	
4.98992	  0.004634	  0.015515	  0.076536	
5.02319	  0.004838	  0.016925	  0.087395	
5.05645	  0.005044	  0.018451	  0.096252	
5.08972	  0.005276	  0.020288	  0.103577	
5.12298	  0.005558	  0.022516	  0.110736	
5.15625	  0.005900	  0.025048	  0.118773	
5.18952	  0.006342	  0.027909	  0.128842	
5.22278	  0.006928	  0.031246	  0.141714	
5.25605	  0.007665	  0.035012	  0.156721	
5.28931	  0.008491	  0.038833	  0.171951	
5.32258	  0.009327	  0.042304	  0.186126	
5.35585	  0.010099	  0.045211	  0.198694	
5.38911	  0.010664	  0.047270	  0.208658	
5.42238	  0.010959	  0.048467	  0.215094	
5.45565	  0.011068	  0.049106	  0.217725	
5.48891	  0.011088	  0.049561	  0.217680	
5.52218	  0.011068	  0.050078	  0.216770	
5.55544	  0.011050	  0.050865	  0.216598	
5.58871	  0.011107	  0.052043	  0.218405	
5.62198	  0.011328	  0.053869	  0.223124	
5.65524	  0.011756	  0.056463	  0.231674	
5.68851	  0.012371	  0.059773	  0.244884	
5.72177	  0.013131	  0.063696	  0.263517	
5.75504	  0.013985	  0.068051	  0.286840	
5.78831	  0.014881	  0.072551	  0.313083	
5.82157	  0.015782	  0.077070	  0.340771	
5.85484	  0.016632	  0.081332	  0.368454	
5.8881	  0.017357	  0.084862	  0.393990	
5.92137	  0.018006	  0.088020	  0.415102	
5.95464	  0.018615	  0.091274	  0.430177	
5.9879	  0.019178	  0.095022	  0.438960	
6.02117	  0.019665	  0.099153	  0.442746	
6.05444	  0.020070	  0.103562	  0.445020	
6.0877	  0.020403	  0.107906	  0.449322	
6.12097	  0.020766	  0.112094	  0.457610	
6.15423	  0.021279	  0.115852	  0.470690	
6.1875	  0.022047	  0.119033	  0.488424	
6.22077	  0.023217	  0.122040	  0.510476	
6.25403	  0.024834	  0.125262	  0.535668	
6.2873	  0.026843	  0.129050	  0.562304	
6.32056	  0.029128	  0.133482	  0.587924	
6.35383	  0.031505	  0.137842	  0.610403	
6.3871	  0.033682	  0.141302	  0.628603	
6.42036	  0.035340	  0.143115	  0.642140	
6.45363	  0.036382	  0.143517	  0.651990	
6.4869	  0.037016	  0.143565	  0.661669	
6.52016	  0.037463	  0.144194	  0.673405	
6.55343	  0.037900	  0.146105	  0.687466	
6.58669	  0.038347	  0.149400	  0.701264	
6.61996	  0.038872	  0.153341	  0.716088	
6.65323	  0.039645	  0.157478	  0.735176	
6.68649	  0.040707	  0.161553	  0.763529	
6.71976	  0.041851	  0.164408	  0.803189	
6.75302	  0.042901	  0.165440	  0.850501	
6.78629	  0.043712	  0.165079	  0.899560	
6.81956	  0.044222	  0.164162	  0.943915	
6.85282	  0.044416	  0.163173	  0.977575	
6.88609	  0.044118	  0.161648	  0.994549	
6.91935	  0.043291	  0.159245	  0.999948	
6.95262	  0.041959	  0.155985	  0.997413	
6.98589	  0.040288	  0.152759	  0.989920	
7.01915	  0.038465	  0.150265	  0.974943	
7.05242	  0.036534	  0.147934	  0.948600	
7.08569	  0.034604	  0.145353	  0.917930	
7.11895	  0.032791	  0.142525	  0.891553	
7.15222	  0.031340	  0.139566	  0.871642	
7.18548	  0.030527	  0.136785	  0.856679	
7.21875	  0.030542	  0.134760	  0.843063	
7.25202	  0.031465	  0.134432	  0.828659	
7.28528	  0.033131	  0.136166	  0.809812	
7.31855	  0.035239	  0.139618	  0.790864	
7.35181	  0.037673	  0.144449	  0.779011	
7.38508	  0.040240	  0.149653	  0.776451	
7.41835	  0.042617	  0.154072	  0.782813	
7.45161	  0.044826	  0.157504	  0.801421	
7.48488	  0.047045	  0.160461	  0.832602	
7.51815	  0.049157	  0.163097	  0.870122	
7.55141	  0.050698	  0.164972	  0.906344	
7.58468	  0.051382	  0.165880	  0.932194	
7.61794	  0.051186	  0.165237	  0.943006	
7.65121	  0.050323	  0.163441	  0.938074	
7.68448	  0.049217	  0.161638	  0.920708	
7.71774	  0.048032	  0.160288	  0.894877	
7.75101	  0.046875	  0.160007	  0.865201	
7.78427	  0.045713	  0.160656	  0.839023	
7.81754	  0.044493	  0.161214	  0.819289	
7.85081	  0.043199	  0.161276	  0.804918	
7.88407	  0.041832	  0.160435	  0.793981	
7.91734	  0.040319	  0.158340	  0.785713	
7.9506	  0.038615	  0.154156	  0.781130	
7.98387	  0.036760	  0.147403	  0.780113	
8.01714	  0.035030	  0.139420	  0.782160	
8.0504	  0.033956	  0.132661	  0.781186	
8.08367	  0.033957	  0.129729	  0.770631	
8.11694	  0.035150	  0.132167	  0.750688	
8.1502	  0.037300	  0.139705	  0.726358	
8.18347	  0.039952	  0.150909	  0.707097	
8.21673	  0.042638	  0.163685	  0.702457	
8.25	  0.044877	  0.175707	  0.714307	
8.28327	  0.046257	  0.184669	  0.736367	
8.31653	  0.046653	  0.189001	  0.760022	
8.3498	  0.046415	  0.189077	  0.779612	
8.38306	  0.045803	  0.185869	  0.794853	
8.41633	  0.044898	  0.180432	  0.807646	
8.4496	  0.044039	  0.174762	  0.820085	
8.48286	  0.043590	  0.170340	  0.832865	
8.51613	  0.043596	  0.167341	  0.842544	
8.5494	  0.043724	  0.164916	  0.843056	
8.58266	  0.043940	  0.163180	  0.835916	
8.61593	  0.044352	  0.163254	  0.827437	
8.64919	  0.045062	  0.166787	  0.820639	
8.68246	  0.046196	  0.174155	  0.817581	
8.71573	  0.047623	  0.183594	  0.819273	
8.74899	  0.048931	  0.191657	  0.822607	
8.78226	  0.049654	  0.195340	  0.820848	
8.81552	  0.049575	  0.194441	  0.811449	
8.84879	  0.048591	  0.190083	  0.796826	
8.88206	  0.046714	  0.183482	  0.778761	
8.91532	  0.044443	  0.176202	  0.758474	
8.94859	  0.042489	  0.169920	  0.740335	
8.98185	  0.041214	  0.165414	  0.729477	
9.01512	  0.040612	  0.162474	  0.727261	
9.04839	  0.040697	  0.161828	  0.733654	
9.08165	  0.041482	  0.163855	  0.748499	
9.11492	  0.042884	  0.168536	  0.770410	
9.14819	  0.044554	  0.174795	  0.792172	
9.18145	  0.046232	  0.181464	  0.805236	
9.21472	  0.047895	  0.187742	  0.804739	
9.24798	  0.049553	  0.193734	  0.792259	
9.28125	  0.050846	  0.198756	  0.773873	
9.31452	  0.051586	  0.202006	  0.753939	
9.34778	  0.051995	  0.204052	  0.735437	
9.38105	  0.052326	  0.206270	  0.721667	
9.41431	  0.052532	  0.208887	  0.715272	
9.44758	  0.052390	  0.210485	  0.714152	
9.48085	  0.051809	  0.210528	  0.710848	
9.51411	  0.050697	  0.208672	  0.703186	
9.54738	  0.049299	  0.205166	  0.697166	
